. 
  
http://www.torrentday.com/        :     The Hottest Private Tracker On The Net!!!
 
http://www.torrentday.com          :     Once & For all ;)


               www . TorrentDay . Com 

(((((((((((((= Enjoy No RAR releases =))))))))))))))))))))


...................................NFO:....................................

.[img]http://img821.imageshack.us/img821/833/htymp.jpg[/img]

Happythankyoumoreplease 2010 BDRip XviD AC3 HQ Hive-CM8



[b]Thx Hive

CM8 Doing It Right The First Time :D

Why download a touched up rip of a rip BRrip
Get the real deal BDRip
Enjoy

Source Bluray

Video: 720x400 @bitrate 1700 2pass
Audio: DTS to AC3 5.1 @448
Sample: yes included[/b]
 
http://www.imdb.com/title/tt1481572/


General
Complete name                    : Happythankyoumoreplease.2010.BDRip.XviD.AC3.HQ.Hive-CM8.avi
Format                           : AVI
Format/Info                      : Audio Video Interleave
File size                        : 1.48 GiB
Duration                         : 1h 38mn
Overall bit rate                 : 2 156 Kbps
Writing application              : Nandub v1.0rc2
Writing library                  : Nandub build 1853/release

Video
ID                               : 0
Format                           : MPEG-4 Visual
Format profile                   : Advanced Simple@L5
Format settings, BVOP            : Yes
Format settings, QPel            : Yes
Format settings, GMC             : No warppoints
Format settings, Matrix          : Default (H.263)
Muxing mode                      : Packed bitstream
Codec ID                         : XVID
Codec ID/Hint                    : XviD
Duration                         : 1h 38mn
Bit rate                         : 1 699 Kbps
Width                            : 720 pixels
Height                           : 400 pixels
Display aspect ratio             : 16:9
Frame rate                       : 23.976 fps
Color space                      : YUV
Chroma subsampling               : 4:2:0
Bit depth                        : 8 bits
Scan type                        : Progressive
Bits/(Pixel*Frame)               : 0.246
Stream size                      : 1.17 GiB (79%)
Writing library                  : XviD 1.2.1 (UTC 2008-12-04)

Audio
ID                               : 1
Format                           : AC-3
Format/Info                      : Audio Coding 3
Mode extension                   : CM (complete main)
Codec ID                         : 2000
Duration                         : 1h 38mn
Bit rate mode                    : Constant
Bit rate                         : 448 Kbps
Channel(s)                       : 6 channels
Channel positions                : Front: L C R, Side: L R, LFE
Sampling rate                    : 48.0 KHz
Bit depth                        : 16 bits
Stream size                      : 316 MiB (21%)
Alignment                        : Split accross interleaves
Interleave, duration             : 42 ms (1.00 video frame)
Interleave, preload duration     : 500 ms




Malin Akerman ... Annie
Michael Algieri ... Rasheen
Jakob Appelman ... School Boy
Bram Barouh ... Spencer
Dana Barron ... The Gynecologist
Sunah Bilsted ... Receptionist
Nicolina Capitanio ... Girl Playing in Park
Lina Carollo ... Restaurant Patron
Todd DiCiurcio ... Rasheen's Artwork  



Captures a generational moment - young people on the cusp of truly growing up, 
tiring of their reflexive cynicism, each in their own ways struggling to connect 
and define what it means to love and be loved.



[img]http://img832.imageshack.us/img832/3227/hahajs.png[/img]
[img]http://img3.imageshack.us/img3/1825/29537610.png[/img]
[img]http://img200.imageshack.us/img200/7118/hahahakw.png[/img]
[img]http://img838.imageshack.us/img838/1673/hahahahaha.png[/img]
[img]http://img703.imageshack.us/img703/9002/hahahahahahav.png[/img]
[img]http://img708.imageshack.us/img708/9421/hahahahahahaha.png[/img]






Greetz

iNK,LUSi,,MAGNET,CLASSiFiED,THC,LEGi0N,IMAGiNE,ViSiON,WBZ,FLAWL3SS,NOVA
Rapeseed,D2U,SAFC,goldadvance,MEMORY100,KaN1vE,Unevano,Pinnz,Wayne,Mr Hive
and all P2P groups 
Great Work Guys :D